<?xml version="1.0" encoding="utf-8"?>
<!-- Generator: Adobe Illustrator 16.0.0, SVG Export Plug-In . SVG Version: 6.00 Build 0)  -->
<!DOCTYPE svg PUBLIC "-//W3C//DTD SVG 1.1//EN" "http://www.w3.org/Graphics/SVG/1.1/DTD/svg11.dtd">
<svg xmlns="http://www.w3.org/2000/svg" xmlns:xlink="http://www.w3.org/1999/xlink" version="1.1" id="Layer_1" x="0px" y="0px" width="100px" height="100px" viewBox="0 0 100 100" enable-background="new 0 0 100 100" xml:space="preserve">

<g>
	<g>
		
			<linearGradient id="SVGID_13_" gradientUnits="userSpaceOnUse" x1="74.1133" y1="-182.834" x2="108.0869" y2="-182.834" gradientTransform="matrix(0.9316 -0.3635 0.3635 0.9316 24.7176 228.9233)">
			<stop offset="0" style="stop-color:#BE1E2D"/>
			<stop offset="0.1623" style="stop-color:#CE1D2A"/>
			<stop offset="0.4043" style="stop-color:#DF1D27"/>
			<stop offset="0.6696" style="stop-color:#E91C25"/>
			<stop offset="1" style="stop-color:#EC1C24"/>
		</linearGradient>
		<path fill="url(#SVGID_13_)" d="M24.259,11.988c0,0,0.205,3.49,3.375,19.471c2.929,14.78,15.476,14.267,19.163,13.317    c3.69-0.949,12.35-4.981,16.534-14.25c0,0-9.641,11.881-21.769,11.29c0,0-11.234-1.744-6.432-12.791    c0.59-1.359,6.928-6.077,11.705,0.342c0,0-0.33-7.714-7.587-7.3c-5.037,0.291-5.979,4.272-5.979,4.272S33.47,15.756,24.259,11.988    z"/>
		
			<linearGradient id="SVGID_14_" gradientUnits="userSpaceOnUse" x1="85.5811" y1="-195.9492" x2="96.4707" y2="-195.9492" gradientTransform="matrix(0.9316 -0.3635 0.3635 0.9316 24.7176 228.9233)">
			<stop offset="0" style="stop-color:#BE1E2D"/>
			<stop offset="0.1623" style="stop-color:#CE1D2A"/>
			<stop offset="0.4043" style="stop-color:#DF1D27"/>
			<stop offset="0.6696" style="stop-color:#E91C25"/>
			<stop offset="1" style="stop-color:#EC1C24"/>
		</linearGradient>
		<path fill="url(#SVGID_14_)" d="M43.362,11.309c1.091,2.806-0.295,5.961-3.091,7.052c-2.802,1.095-5.962-0.291-7.053-3.092    c-1.091-2.801,0.292-5.957,3.093-7.052C39.111,7.126,42.267,8.512,43.362,11.309z"/>
	</g>
	<g>
		
			<linearGradient id="SVGID_15_" gradientUnits="userSpaceOnUse" x1="-471.9312" y1="-48.9346" x2="-430.7578" y2="-48.9346" gradientTransform="matrix(0.1182 -0.993 0.993 0.1182 124.8624 -382.3173)">
			<stop offset="0" style="stop-color:#2B388F"/>
			<stop offset="0.0514" style="stop-color:#293F94"/>
			<stop offset="0.2542" style="stop-color:#2357A5"/>
			<stop offset="0.4701" style="stop-color:#1E68B1"/>
			<stop offset="0.7061" style="stop-color:#1C72B9"/>
			<stop offset="1" style="stop-color:#1B75BB"/>
		</linearGradient>
		<path fill="url(#SVGID_15_)" d="M25.893,81.17c0,0,2.176-2.728,10.52-16.73c7.71-12.937-1.95-20.954-5.329-22.717    c-3.378-1.762-12.513-4.563-21.819-0.474c0,0,15.109-2.374,23.726,6.179c0,0,7.185,8.81-3.78,13.809    c-1.343,0.611-9.212-0.125-8.467-8.088c0,0-4.918,5.954,0.753,10.5c3.938,3.155,7.304,0.826,7.304,0.826    S21.564,72.206,25.893,81.17z"/>
		
			<linearGradient id="SVGID_16_" gradientUnits="userSpaceOnUse" x1="-468.2261" y1="-54.2075" x2="-457.3364" y2="-54.2075" gradientTransform="matrix(0.1182 -0.993 0.993 0.1182 124.8624 -382.3173)">
			<stop offset="0" style="stop-color:#2B388F"/>
			<stop offset="0.0514" style="stop-color:#293F94"/>
			<stop offset="0.2542" style="stop-color:#2357A5"/>
			<stop offset="0.4701" style="stop-color:#1E68B1"/>
			<stop offset="0.7061" style="stop-color:#1C72B9"/>
			<stop offset="1" style="stop-color:#1B75BB"/>
		</linearGradient>
		<path fill="url(#SVGID_16_)" d="M11.241,68.892c1.061-2.813,4.204-4.228,7.014-3.167c2.814,1.059,4.233,4.197,3.173,7.013    c-1.061,2.814-4.204,4.234-7.014,3.174C11.6,74.846,10.18,71.701,11.241,68.892z"/>
	</g>
	<g>
		
			<linearGradient id="SVGID_17_" gradientUnits="userSpaceOnUse" x1="-225.9541" y1="-56.7534" x2="-184.0811" y2="-56.7534" gradientTransform="matrix(0.4011 -0.916 0.916 0.4011 208.8644 -123.604)">
			<stop offset="0" style="stop-color:#F05A28"/>
			<stop offset="0.0171" style="stop-color:#F05C28"/>
			<stop offset="0.2272" style="stop-color:#F37423"/>
			<stop offset="0.4509" style="stop-color:#F58520"/>
			<stop offset="0.6955" style="stop-color:#F68F1F"/>
			<stop offset="1" style="stop-color:#F6921E"/>
		</linearGradient>
		<path fill="url(#SVGID_17_)" d="M80.858,21.294c0,0-3.05,1.697-16.08,11.491c-12.037,9.05-6.137,20.13-3.677,23.042    c2.459,2.908,9.849,8.964,20.01,8.711c0,0-14.883-3.532-19.612-14.714c0,0-3.311-10.875,8.729-11.342    c1.479-0.061,8.479,3.6,4.769,10.691c0,0,6.807-3.644,3.283-9.999c-2.445-4.414-6.439-3.537-6.439-3.537    S81.467,31.229,80.858,21.294z"/>
		
			<linearGradient id="SVGID_18_" gradientUnits="userSpaceOnUse" x1="-199.6499" y1="-49.3364" x2="-188.7588" y2="-49.3364" gradientTransform="matrix(0.4011 -0.916 0.916 0.4011 208.8644 -123.604)">
			<stop offset="0" style="stop-color:#F05A28"/>
			<stop offset="0.0171" style="stop-color:#F05C28"/>
			<stop offset="0.2272" style="stop-color:#F37423"/>
			<stop offset="0.4509" style="stop-color:#F58520"/>
			<stop offset="0.6955" style="stop-color:#F68F1F"/>
			<stop offset="1" style="stop-color:#F6921E"/>
		</linearGradient>
		<path fill="url(#SVGID_18_)" d="M89.758,38.208c-2.049,2.203-5.491,2.322-7.693,0.274c-2.197-2.048-2.322-5.496-0.27-7.693    c2.044-2.203,5.491-2.323,7.689-0.274C91.688,32.563,91.811,36.01,89.758,38.208z"/>
	</g>
	<g>
		
			<linearGradient id="SVGID_19_" gradientUnits="userSpaceOnUse" x1="-158.2402" y1="-13.4478" x2="-132.207" y2="-13.4478" gradientTransform="matrix(0.5928 -0.8054 0.8054 0.5928 156.3762 -36.8555)">
			<stop offset="0" style="stop-color:#006838"/>
			<stop offset="0.1294" style="stop-color:#107D3D"/>
			<stop offset="0.3154" style="stop-color:#219543"/>
			<stop offset="0.5136" style="stop-color:#2DA647"/>
			<stop offset="0.7303" style="stop-color:#35B049"/>
			<stop offset="1" style="stop-color:#37B34A"/>
		</linearGradient>
		<path fill="url(#SVGID_19_)" d="M72.627,90.63c0,0-0.018-3.499-2.323-19.625c-2.124-14.912-14.681-15.08-18.419-14.326    c-3.733,0.749-12.598,4.306-17.272,13.334c0,0,10.264-11.341,22.345-10.098c0,0,11.119,2.344,5.73,13.121    c-0.658,1.322-7.244,5.692-11.671-0.976c0,0-0.09,7.719,7.186,7.699c5.045-0.022,6.201-3.943,6.201-3.943    S63.629,86.374,72.627,90.63z"/>
		
			<linearGradient id="SVGID_20_" gradientUnits="userSpaceOnUse" x1="-164.3643" y1="-4.3232" x2="-153.4766" y2="-4.3232" gradientTransform="matrix(0.5928 -0.8054 0.8054 0.5928 156.3762 -36.8555)">
			<stop offset="0" style="stop-color:#006838"/>
			<stop offset="0.1294" style="stop-color:#107D3D"/>
			<stop offset="0.3154" style="stop-color:#219543"/>
			<stop offset="0.5136" style="stop-color:#2DA647"/>
			<stop offset="0.7303" style="stop-color:#35B049"/>
			<stop offset="1" style="stop-color:#37B34A"/>
		</linearGradient>
		<path fill="url(#SVGID_20_)" d="M53.515,90.28c-0.937-2.858,0.611-5.937,3.468-6.878s5.933,0.617,6.872,3.473    c0.945,2.853-0.611,5.932-3.468,6.873C57.53,94.688,54.455,93.131,53.515,90.28z"/>
	</g>
</g>
</svg>
