<!DOCTYPE svg PUBLIC "-//W3C//DTD SVG 20010904//EN" "http://www.w3.org/TR/2001/REC-SVG-20010904/DTD/svg10.dtd">
<svg version="1.0" xmlns="http://www.w3.org/2000/svg" width="300px" height="300px" viewBox="0 0 3000 3000" preserveAspectRatio="xMidYMid meet">
<g id="layer101" fill="#5f5f5f" stroke="none">
<path d="M0 1500 l0 -1500 1500 0 1500 0 0 1500 0 1500 -1500 0 -1500 0 0 -1500z"/>
</g>
<g id="layer102" fill="#939393" stroke="none">
<path d="M0 1500 l0 -1500 1500 0 1500 0 0 1500 0 1500 -1500 0 -1500 0 0 -1500z m1180 690 c0 -14 57 -13 62 1 2 6 15 9 30 7 l26 -3 -32 -80 c-27 -68 -36 -80 -55 -80 -20 0 -28 12 -52 75 -16 41 -29 78 -29 82 0 5 11 8 25 8 14 0 25 -4 25 -10z m247 -41 c13 -26 27 -63 30 -83 5 -34 4 -36 -21 -36 -23 0 -26 4 -26 33 -1 17 -7 46 -14 62 l-13 30 -16 -32 c-11 -20 -15 -43 -11 -62 6 -28 4 -31 -20 -31 -23 0 -26 4 -26 35 0 20 11 58 25 86 33 64 57 64 92 -2z m83 41 c0 -5 16 -10 35 -10 19 0 35 5 35 10 0 6 12 10 26 10 21 0 25 -4 20 -17 -50 -135 -60 -153 -83 -153 -12 0 -23 2 -23 4 0 3 -13 41 -30 85 l-29 81 24 0 c14 0 25 -4 25 -10z m180 -75 c0 -84 0 -85 -25 -85 -25 0 -25 1 -25 85 0 84 0 85 25 85 25 0 25 -1 25 -85z m200 75 c0 -5 16 -10 35 -10 19 0 35 5 35 10 0 6 12 10 26 10 21 0 25 -4 20 -17 -49 -132 -60 -153 -81 -153 -19 0 -27 13 -53 83 -17 45 -31 74 -31 65 -1 -14 -10 -18 -36 -18 l-35 0 0 -65 c0 -63 -1 -65 -25 -65 -25 0 -25 1 -25 85 l0 85 85 0 c50 0 85 -4 85 -10z m250 0 c15 -8 18 -21 18 -76 -2 -76 -10 -84 -87 -84 l-51 0 0 85 0 85 51 0 c28 0 59 -4 69 -10z m160 -10 c0 -16 -7 -20 -35 -20 l-35 0 0 -65 c0 -63 -1 -65 -25 -65 -25 0 -25 1 -25 85 l0 85 60 0 c53 0 60 -2 60 -20z m133 0 c4 -17 0 -20 -34 -20 -50 0 -55 -27 -7 -32 22 -2 34 -9 36 -20 3 -15 -4 -18 -32 -18 -20 0 -36 -4 -36 -10 0 -5 16 -10 35 -10 28 0 35 -4 35 -20 0 -18 -7 -20 -60 -20 l-60 0 0 85 0 85 59 0 c50 0 59 -3 64 -20z m-1293 -450 l0 -170 -47 0 -48 0 -1 170 -1 170 49 0 48 0 0 -170z m141 91 c-1 -41 2 -71 6 -68 5 3 22 38 38 76 37 94 52 93 90 -6 l30 -78 3 78 3 77 48 0 48 0 0 -170 0 -170 -44 0 -44 0 -43 91 c-48 103 -45 103 -97 -13 l-34 -77 -45 -1 -45 0 0 170 -1 171 45 -3 44 -3 -2 -74z m395 54 c6 -23 11 -25 60 -25 49 0 55 3 64 25 8 22 15 25 60 25 27 0 50 -1 50 -3 0 -2 -29 -77 -63 -168 l-64 -164 -45 -3 c-42 -3 -47 -1 -56 25 -6 15 -33 92 -61 171 l-51 142 50 0 c45 0 50 -3 56 -25z m579 7 c-3 -8 -5 -47 -5 -88 l0 -74 -47 0 -48 0 0 42 c0 43 0 43 -40 46 -56 4 -85 -24 -85 -83 0 -35 5 -48 26 -64 32 -25 59 -26 99 -5 29 15 31 14 52 -12 28 -35 18 -56 -37 -78 -75 -30 -144 -14 -193 43 -74 88 -52 222 45 270 34 17 58 20 140 18 77 -2 97 -5 93 -15z m275 1 c0 -10 3 -28 6 -40 6 -21 3 -22 -67 -25 -68 -3 -74 -5 -77 -25 -3 -22 0 -23 62 -23 l66 0 0 -40 0 -40 -65 0 c-63 0 -65 -1 -65 -25 0 -24 2 -25 70 -25 75 0 78 -3 64 -57 -6 -22 -11 -23 -118 -23 l-111 0 -1 170 -1 170 119 0 c106 0 118 -2 118 -17z m-1883 -355 c-2 -13 -4 -5 -4 17 -1 22 1 32 4 23 2 -10 2 -28 0 -40z m1319 -134 c7 -29 3 -37 -18 -29 -18 7 -41 53 -33 66 10 15 44 -9 51 -37z m-739 -8 c28 -25 28 -25 11 -56 -22 -39 -22 -48 -2 -52 13 -3 13 -5 1 -22 -14 -19 -16 -19 -41 -3 -29 20 -35 57 -11 77 20 17 19 27 -5 35 -16 5 -18 10 -10 26 14 25 23 24 57 -5z m172 9 c60 -31 56 -110 -8 -144 -53 -29 -121 11 -121 72 0 72 63 107 129 72z m111 -15 c0 -16 4 -30 9 -30 5 0 14 14 21 30 9 22 19 30 36 30 24 0 24 -1 10 -33 -11 -28 -11 -36 0 -52 33 -45 -3 -85 -76 -85 l-50 0 0 85 c0 84 0 85 25 85 21 0 25 -5 25 -30z m150 0 c0 -19 5 -30 14 -30 8 0 17 14 21 30 5 23 12 30 31 30 27 0 29 -8 12 -45 -9 -19 -9 -28 0 -37 19 -19 14 -66 -7 -78 -11 -5 -42 -10 -70 -10 l-51 0 0 85 c0 84 0 85 25 85 21 0 25 -5 25 -30z m200 7 c0 -13 11 -38 25 -57 14 -19 25 -47 25 -62 0 -23 -4 -28 -25 -28 -19 0 -25 5 -25 23 0 12 -4 28 -9 36 -13 21 -41 -4 -41 -35 0 -19 -5 -24 -26 -24 -24 0 -26 3 -20 31 3 17 15 43 26 59 11 15 20 40 20 54 0 21 5 26 25 26 19 0 25 -5 25 -23z m242 -23 l3 -46 34 46 c24 31 42 46 57 46 22 0 23 -3 23 -85 0 -83 -1 -85 -24 -85 -21 0 -24 5 -27 46 l-3 46 -32 -46 c-21 -29 -40 -46 -53 -46 -18 0 -20 6 -20 85 0 78 2 85 19 85 16 0 20 -8 23 -46z m273 23 c58 -49 20 -147 -56 -147 -21 0 -40 10 -60 30 -25 24 -29 36 -25 62 11 69 90 100 141 55z m-1804 -93 l-9 -39 -1 36 c-1 20 2 39 6 42 12 13 13 0 4 -39z m1084 -255 c-4 -5 -18 -9 -33 -9 l-27 1 25 13 c25 15 45 12 35 -5z m-1 -31 c-20 -36 -49 -58 -67 -52 -13 4 -17 2 -13 -5 4 -6 2 -11 -3 -11 -14 0 -14 17 -1 25 6 3 10 17 10 31 0 21 4 24 41 24 29 0 38 -3 33 -12z m-14 -62 c0 -15 -78 -32 -91 -19 -4 4 11 9 34 10 23 1 43 6 45 12 5 15 12 14 12 -3z m-950 -51 c-14 -8 -29 -14 -35 -14 -5 0 1 6 15 14 14 8 30 14 35 14 6 0 -1 -6 -15 -14z"/>
<path d="M1600 974 c0 -14 3 -14 15 -4 8 7 15 14 15 16 0 2 -7 4 -15 4 -8 0 -15 -7 -15 -16z"/>
</g>
<g id="layer103" fill="#b2b2b2" stroke="none">
<path d="M0 1500 l0 -1500 1500 0 1500 0 0 1500 0 1500 -1500 0 -1500 0 0 -1500z m1175 1000 c-3 -10 -1 -21 4 -25 7 -4 6 -13 -2 -26 -10 -16 -9 -21 3 -29 11 -8 12 -12 3 -18 -9 -6 -9 -18 -1 -50 l10 -42 111 0 c61 0 108 -2 106 -4 -9 -9 -349 -15 -349 -6 0 5 10 10 22 12 18 2 25 16 41 73 10 39 19 100 20 136 l1 65 19 -34 c10 -18 15 -42 12 -52z m-355 33 c0 -27 8 -86 17 -132 16 -76 20 -85 48 -98 27 -12 20 -13 -68 -7 -71 5 -101 3 -112 -6 -19 -16 -20 4 -1 23 10 10 13 27 9 55 -4 32 0 54 21 95 14 30 26 61 26 70 0 10 7 17 15 17 9 0 18 7 21 15 12 30 24 14 24 -32z m360 -343 c0 -14 57 -13 62 1 2 6 15 9 30 7 l26 -3 -32 -80 c-27 -68 -36 -80 -55 -80 -20 0 -28 12 -52 75 -16 41 -29 78 -29 82 0 5 11 8 25 8 14 0 25 -4 25 -10z m247 -41 c13 -26 27 -63 30 -83 5 -34 4 -36 -21 -36 -23 0 -26 4 -26 33 -1 17 -7 46 -14 62 l-13 30 -16 -32 c-11 -20 -15 -43 -11 -62 6 -28 4 -31 -20 -31 -23 0 -26 4 -26 35 0 20 11 58 25 86 33 64 57 64 92 -2z m83 41 c0 -5 16 -10 35 -10 19 0 35 5 35 10 0 6 12 10 26 10 21 0 25 -4 20 -17 -50 -135 -60 -153 -83 -153 -12 0 -23 2 -23 4 0 3 -13 41 -30 85 l-29 81 24 0 c14 0 25 -4 25 -10z m180 -75 c0 -84 0 -85 -25 -85 -25 0 -25 1 -25 85 0 84 0 85 25 85 25 0 25 -1 25 -85z m200 75 c0 -5 16 -10 35 -10 19 0 35 5 35 10 0 6 12 10 26 10 21 0 25 -4 20 -17 -49 -132 -60 -153 -81 -153 -19 0 -27 13 -53 83 -17 45 -31 74 -31 65 -1 -14 -10 -18 -36 -18 l-35 0 0 -65 c0 -63 -1 -65 -25 -65 -25 0 -25 1 -25 85 l0 85 85 0 c50 0 85 -4 85 -10z m250 0 c15 -8 18 -21 18 -76 -2 -76 -10 -84 -87 -84 l-51 0 0 85 0 85 51 0 c28 0 59 -4 69 -10z m160 -10 c0 -16 -7 -20 -35 -20 l-35 0 0 -65 c0 -63 -1 -65 -25 -65 -25 0 -25 1 -25 85 l0 85 60 0 c53 0 60 -2 60 -20z m133 0 c4 -17 0 -20 -34 -20 -50 0 -55 -27 -7 -32 22 -2 34 -9 36 -20 3 -15 -4 -18 -32 -18 -20 0 -36 -4 -36 -10 0 -5 16 -10 35 -10 28 0 35 -4 35 -20 0 -18 -7 -20 -60 -20 l-60 0 0 85 0 85 59 0 c50 0 59 -3 64 -20z m-1746 -162 c-2 -13 -4 -3 -4 22 0 25 2 35 4 23 2 -13 2 -33 0 -45z m-24 -113 c15 -1 30 -5 34 -8 3 -4 17 -7 29 -7 30 0 84 -66 84 -102 0 -21 -5 -28 -20 -28 -11 0 -20 7 -20 15 0 8 -7 15 -15 15 -18 0 -85 31 -85 40 0 6 -28 10 -77 10 -18 -1 -33 4 -33 11 0 6 -7 9 -15 6 -22 -9 -27 8 -7 26 25 23 64 37 82 30 8 -4 27 -7 43 -8z m477 -175 l0 -170 -47 0 -48 0 -1 170 -1 170 49 0 48 0 0 -170z m141 91 c-1 -41 2 -71 6 -68 5 3 22 38 38 76 37 94 52 93 90 -6 l30 -78 3 78 3 77 48 0 48 0 0 -170 0 -170 -44 0 -44 0 -43 91 c-48 103 -45 103 -97 -13 l-34 -77 -45 -1 -45 0 0 170 -1 171 45 -3 44 -3 -2 -74z m395 54 c6 -23 11 -25 60 -25 49 0 55 3 64 25 8 22 15 25 60 25 27 0 50 -1 50 -3 0 -2 -29 -77 -63 -168 l-64 -164 -45 -3 c-42 -3 -47 -1 -56 25 -6 15 -33 92 -61 171 l-51 142 50 0 c45 0 50 -3 56 -25z m579 7 c-3 -8 -5 -47 -5 -88 l0 -74 -47 0 -48 0 0 42 c0 43 0 43 -40 46 -56 4 -85 -24 -85 -83 0 -35 5 -48 26 -64 32 -25 59 -26 99 -5 29 15 31 14 52 -12 28 -35 18 -56 -37 -78 -75 -30 -144 -14 -193 43 -74 88 -52 222 45 270 34 17 58 20 140 18 77 -2 97 -5 93 -15z m275 1 c0 -10 3 -28 6 -40 6 -21 3 -22 -67 -25 -68 -3 -74 -5 -77 -25 -3 -22 0 -23 62 -23 l66 0 0 -40 0 -40 -65 0 c-63 0 -65 -1 -65 -25 0 -24 2 -25 70 -25 75 0 78 -3 64 -57 -6 -22 -11 -23 -118 -23 l-111 0 -1 170 -1 170 119 0 c106 0 118 -2 118 -17z m-1876 -382 c-4 -21 -9 -30 -12 -21 -8 24 -26 31 -33 12 -4 -10 -7 -3 -6 18 0 23 9 43 26 61 l26 26 3 -30 c2 -17 0 -47 -4 -66z m-86 -54 c6 -7 9 -31 7 -53 l-5 -39 13 40 c17 53 29 32 22 -37 -4 -37 -2 -47 4 -33 8 17 10 17 10 3 1 -9 -4 -20 -10 -24 -7 -4 -9 -23 -5 -53 3 -25 1 -53 -4 -61 -5 -8 -10 -11 -10 -7 0 4 -9 3 -19 -3 -17 -9 -20 -5 -25 38 -3 26 -8 91 -12 145 -5 82 -4 97 9 97 8 0 19 -6 25 -13z m1398 -53 c7 -29 3 -37 -18 -29 -18 7 -41 53 -33 66 10 15 44 -9 51 -37z m-739 -8 c28 -25 28 -25 11 -56 -22 -39 -22 -48 -2 -52 13 -3 13 -5 1 -22 -14 -19 -16 -19 -41 -3 -29 20 -35 57 -11 77 20 17 19 27 -5 35 -16 5 -18 10 -10 26 14 25 23 24 57 -5z m172 9 c60 -31 56 -110 -8 -144 -53 -29 -121 11 -121 72 0 72 63 107 129 72z m111 -15 c0 -16 4 -30 9 -30 5 0 14 14 21 30 9 22 19 30 36 30 24 0 24 -1 10 -33 -11 -28 -11 -36 0 -52 33 -45 -3 -85 -76 -85 l-50 0 0 85 c0 84 0 85 25 85 21 0 25 -5 25 -30z m150 0 c0 -19 5 -30 14 -30 8 0 17 14 21 30 5 23 12 30 31 30 27 0 29 -8 12 -45 -9 -19 -9 -28 0 -37 19 -19 14 -66 -7 -78 -11 -5 -42 -10 -70 -10 l-51 0 0 85 c0 84 0 85 25 85 21 0 25 -5 25 -30z m200 7 c0 -13 11 -38 25 -57 14 -19 25 -47 25 -62 0 -23 -4 -28 -25 -28 -19 0 -25 5 -25 23 0 12 -4 28 -9 36 -13 21 -41 -4 -41 -35 0 -19 -5 -24 -26 -24 -24 0 -26 3 -20 31 3 17 15 43 26 59 11 15 20 40 20 54 0 21 5 26 25 26 19 0 25 -5 25 -23z m242 -23 l3 -46 34 46 c24 32 42 46 58 46 22 0 23 -3 23 -85 0 -83 0 -85 -24 -85 -22 0 -25 5 -28 46 l-3 46 -32 -46 c-21 -29 -40 -46 -53 -46 -18 0 -20 6 -20 85 0 78 2 85 19 85 16 0 20 -8 23 -46z m273 23 c58 -49 20 -147 -56 -147 -39 0 -89 48 -89 85 0 37 50 85 89 85 17 0 41 -10 56 -23z m-547 -218 c17 -6 32 -14 32 -19 0 -5 9 -12 20 -15 11 -3 20 -10 20 -15 0 -6 -10 -6 -22 -1 -37 13 -138 14 -153 1 -8 -6 -18 -9 -23 -6 -5 3 -19 -15 -32 -40 l-22 -46 -57 6 c-37 4 -49 2 -36 -4 18 -8 17 -9 -7 -9 -14 -1 -28 4 -30 10 -2 7 -12 7 -31 -2 -21 -10 -30 -10 -39 -1 -9 9 -113 12 -384 12 -205 0 -375 3 -377 8 -3 4 171 6 385 4 325 -2 394 0 412 12 25 16 86 12 98 -7 6 -9 14 -9 35 3 16 9 28 20 28 26 0 6 13 22 29 37 16 15 25 27 20 28 -14 1 56 25 80 27 11 1 36 -3 54 -9z m162 -129 c0 -5 -13 -10 -29 -10 -17 0 -33 5 -36 10 -4 6 8 10 29 10 20 0 36 -4 36 -10z m553 -7 c-101 -2 -265 -2 -365 0 -101 1 -19 2 182 2 201 0 283 -1 183 -2z m-893 -33 c-6 -11 -16 -17 -22 -14 -6 4 -8 3 -5 -3 10 -16 -18 -34 -38 -26 -13 4 -16 3 -11 -5 4 -7 2 -12 -3 -12 -14 0 -14 17 -1 25 6 3 10 17 10 31 0 21 4 24 40 24 38 0 40 -1 30 -20z m-10 -54 c0 -15 -78 -32 -91 -19 -4 4 11 9 34 10 23 1 43 6 45 12 5 15 12 14 12 -3z m-912 -12 c8 4 192 -10 241 -19 20 -3 39 -1 47 6 11 9 18 9 26 1 9 -9 7 -12 -10 -12 -12 0 -22 -2 -22 -4 0 -2 26 -31 58 -63 52 -55 110 -139 128 -188 8 -19 7 -19 -10 -2 -9 9 -24 17 -32 17 -8 0 -12 5 -9 10 8 13 -4 13 -41 0 -36 -12 -463 -32 -478 -22 -6 4 -42 8 -81 8 -90 2 -121 8 -117 25 11 47 129 157 209 195 35 16 65 38 69 49 4 12 9 15 11 7 3 -6 8 -10 11 -8z"/>
<path d="M1197 2120 c3 -11 9 -20 13 -20 4 0 10 9 13 20 4 15 0 20 -13 20 -13 0 -17 -5 -13 -20z"/>
<path d="M540 1428 c0 -19 2 -20 10 -8 13 19 13 30 0 30 -5 0 -10 -10 -10 -22z"/>
</g>
<g id="layer104" fill="#d0d0d0" stroke="none">
<path d="M0 1500 l0 -1500 1500 0 1500 0 0 1500 0 1500 -1500 0 -1500 0 0 -1500z m695 1290 c-3 -5 0 -10 7 -10 7 0 31 -9 52 -21 21 -11 43 -18 49 -16 20 6 49 -32 41 -56 -8 -24 -10 -42 -19 -137 -5 -46 -1 -89 12 -150 l19 -85 124 0 124 0 13 50 c29 113 35 179 19 226 -17 48 -20 97 -8 117 11 16 110 54 123 47 5 -4 9 -1 9 5 0 7 6 10 14 7 8 -3 16 -1 19 6 2 8 41 12 129 12 108 0 129 -3 146 -18 25 -23 25 -57 0 -57 -10 0 -18 5 -18 10 0 6 -7 10 -15 10 -7 0 -18 8 -23 17 -8 13 -25 17 -83 17 -82 1 -151 -25 -157 -57 -6 -32 7 -65 28 -72 29 -9 25 -35 -5 -35 -30 0 -31 -14 -4 -60 33 -55 76 -90 111 -90 l31 0 -6 -68 -7 -69 317 -6 c174 -4 466 -7 650 -7 290 0 333 -2 333 -15 0 -13 -39 -14 -317 -9 -175 3 -500 7 -723 9 -223 1 -532 5 -688 8 -155 2 -284 1 -286 -2 -3 -4 -6 -88 -7 -188 -3 -185 2 -213 36 -213 8 0 28 -17 45 -37 28 -34 31 -43 25 -85 -4 -32 -2 -47 7 -50 10 -4 10 -7 0 -19 -7 -8 -19 -23 -27 -34 -9 -11 -15 -15 -14 -10 3 24 -2 35 -17 35 -8 0 -12 -4 -9 -10 4 -6 -15 -8 -54 -3 -40 4 -61 2 -61 -5 0 -6 6 -13 13 -16 6 -3 -8 -3 -33 0 -25 4 -48 11 -51 17 -4 5 -11 7 -17 3 -6 -3 -22 -2 -36 4 -21 8 -26 16 -26 46 0 56 21 114 55 149 16 18 36 34 42 36 10 3 5 47 -17 179 -16 96 -32 229 -35 295 -4 66 -8 131 -11 145 -4 20 -3 23 7 13 18 -18 68 -16 75 2 4 8 14 15 23 15 11 0 12 3 4 8 -8 5 -2 17 18 40 16 18 32 32 35 31 4 0 15 12 25 28 22 33 25 79 5 86 -8 3 -20 15 -26 26 -9 17 -8 21 5 21 9 0 13 -4 10 -10z m2085 -1144 l0 -605 -22 -8 c-13 -4 -196 -8 -408 -8 -212 0 -393 -4 -403 -9 -14 -7 -20 -1 -33 30 -24 58 -49 77 -110 82 -85 7 -144 -33 -144 -98 0 -10 -12 -33 -26 -50 -15 -17 -23 -34 -20 -38 4 -3 11 0 16 8 8 13 10 13 10 -1 0 -12 -13 -18 -42 -23 -23 -4 -44 -3 -47 1 -4 4 -4 7 -2 6 7 -4 31 48 31 68 0 14 -7 19 -30 19 -22 0 -30 -5 -30 -17 0 -14 -2 -15 -9 -5 -6 10 -10 7 -15 -12 -7 -28 -61 -63 -71 -46 -3 5 -4 28 -1 50 l4 40 -246 1 c-136 0 -274 2 -307 4 -46 2 -52 1 -25 -5 l35 -7 -42 -2 c-24 0 -43 4 -43 9 0 6 -18 10 -40 10 -68 0 -44 -17 35 -25 41 -4 75 -11 75 -16 0 -5 18 -9 40 -9 22 0 40 -4 40 -9 0 -5 26 -12 58 -16 31 -4 71 -15 88 -26 17 -10 41 -19 53 -19 12 0 19 -4 16 -10 -7 -12 -75 -13 -93 -1 -7 4 -24 6 -37 3 -24 -4 -22 -7 33 -67 31 -35 72 -88 91 -119 38 -63 72 -179 70 -240 -1 -23 -3 -33 -6 -24 -3 13 -10 15 -31 8 -87 -29 -485 -47 -652 -29 -63 6 -130 12 -147 13 -37 1 -37 0 -22 82 26 144 120 270 261 349 69 38 100 75 64 75 -9 0 -16 5 -16 10 0 6 -3 9 -7 9 -5 -1 -11 0 -15 1 -5 1 -11 3 -15 4 -27 7 -53 18 -53 25 0 6 60 6 91 -1 6 -2 14 3 16 10 3 6 -2 12 -11 12 -8 0 -18 5 -22 12 -5 7 -3 8 5 3 8 -4 7 2 -3 17 -9 13 -14 33 -12 43 2 11 7 53 11 93 6 62 5 72 -9 72 -12 0 -16 -10 -16 -41 0 -25 -9 -55 -21 -76 -18 -29 -26 -34 -53 -31 -28 3 -31 6 -28 34 2 19 -3 38 -13 48 -9 9 -14 20 -10 25 3 5 -4 12 -15 16 -16 5 -20 15 -20 56 0 32 4 49 13 50 9 0 9 2 0 6 -19 7 -16 17 12 47 14 15 25 34 25 42 0 7 6 14 14 14 23 0 36 -26 31 -61 l-5 -34 10 33 c12 37 13 37 45 16 23 -15 25 -15 32 2 7 20 -42 65 -63 57 -7 -2 -17 5 -23 16 -12 22 -15 38 -4 28 3 -4 17 9 30 28 13 20 28 33 33 30 6 -3 7 1 4 9 -7 18 27 38 45 27 10 -6 12 -63 8 -264 -4 -184 -2 -260 7 -271 9 -12 71 -15 373 -20 366 -5 417 -2 436 31 4 7 17 13 27 13 11 0 20 5 20 10 0 6 12 10 28 11 32 0 126 38 98 38 -18 1 -18 2 3 25 24 25 59 25 74 0 4 -7 14 -11 22 -8 8 3 31 0 52 -7 21 -7 42 -12 47 -11 15 5 36 -19 54 -62 l19 -41 99 3 c54 1 234 -3 398 -10 287 -11 299 -11 312 7 11 15 14 128 14 607 0 323 2 588 5 588 3 0 5 -272 5 -604z m-1600 544 c0 -14 57 -13 62 1 2 6 15 9 30 7 l26 -3 -32 -80 c-27 -68 -36 -80 -55 -80 -20 0 -28 12 -52 75 -16 41 -29 78 -29 82 0 5 11 8 25 8 14 0 25 -4 25 -10z m247 -41 c13 -26 27 -63 30 -83 5 -34 4 -36 -21 -36 -23 0 -26 4 -26 33 -1 17 -7 46 -14 62 l-13 30 -16 -32 c-11 -20 -15 -43 -11 -62 6 -28 4 -31 -20 -31 -23 0 -26 4 -26 35 0 20 11 58 25 86 33 64 57 64 92 -2z m83 41 c0 -5 16 -10 35 -10 19 0 35 5 35 10 0 6 12 10 26 10 21 0 25 -4 20 -17 -50 -135 -60 -153 -83 -153 -12 0 -23 2 -23 4 0 3 -13 41 -30 85 l-29 81 24 0 c14 0 25 -4 25 -10z m180 -75 c0 -84 0 -85 -25 -85 -25 0 -25 1 -25 85 0 84 0 85 25 85 25 0 25 -1 25 -85z m200 75 c0 -5 16 -10 35 -10 19 0 35 5 35 10 0 6 12 10 26 10 21 0 25 -4 20 -17 -49 -132 -60 -153 -81 -153 -19 0 -27 13 -53 83 -17 45 -31 74 -31 65 -1 -14 -10 -18 -36 -18 l-35 0 0 -65 c0 -63 -1 -65 -25 -65 -25 0 -25 1 -25 85 l0 85 85 0 c50 0 85 -4 85 -10z m252 -2 c19 -16 30 -56 17 -64 -5 -3 -7 -21 -3 -39 7 -42 -13 -55 -85 -55 l-51 0 0 85 0 85 53 0 c29 0 60 -6 69 -12z m158 -8 c0 -16 -7 -20 -35 -20 l-35 0 0 -65 c0 -63 -1 -65 -25 -65 -25 0 -25 1 -25 85 l0 85 60 0 c53 0 60 -2 60 -20z m133 0 c4 -17 0 -20 -34 -20 -50 0 -55 -27 -7 -32 22 -2 34 -9 36 -20 3 -15 -4 -18 -32 -18 -20 0 -36 -4 -36 -10 0 -5 16 -10 35 -10 28 0 35 -4 35 -20 0 -18 -7 -20 -60 -20 l-60 0 0 85 0 85 59 0 c50 0 59 -3 64 -20z m-1293 -450 l0 -170 -47 0 -48 0 -1 170 -1 170 49 0 48 0 0 -170z m141 91 c-1 -41 2 -71 6 -68 5 3 22 38 38 76 37 94 52 93 90 -6 l30 -78 3 78 3 77 48 0 48 0 0 -170 0 -170 -44 0 -44 0 -43 91 c-48 103 -45 103 -97 -13 l-34 -77 -45 -1 -45 0 0 170 -1 171 45 -3 44 -3 -2 -74z m395 54 c6 -23 11 -25 60 -25 49 0 55 3 64 25 8 22 15 25 60 25 27 0 50 -1 50 -3 0 -2 -29 -77 -63 -168 l-64 -164 -45 -3 c-42 -3 -47 -1 -56 25 -6 15 -33 92 -61 171 l-51 142 50 0 c45 0 50 -3 56 -25z m579 7 c-3 -8 -5 -47 -5 -88 l0 -74 -47 0 -48 0 0 42 c0 43 0 43 -40 46 -56 4 -85 -24 -85 -83 0 -35 5 -48 26 -64 32 -25 59 -26 99 -5 29 15 31 14 52 -12 28 -35 18 -56 -37 -78 -75 -30 -144 -14 -193 43 -74 88 -52 222 45 270 34 17 58 20 140 18 77 -2 97 -5 93 -15z m275 1 c0 -10 3 -28 6 -40 6 -21 3 -22 -67 -25 -68 -3 -74 -5 -77 -25 -3 -22 0 -23 62 -23 l66 0 0 -40 0 -40 -65 0 c-63 0 -65 -1 -65 -25 0 -24 2 -25 70 -25 75 0 78 -3 64 -57 -6 -22 -11 -23 -118 -23 l-111 0 -1 170 -1 170 119 0 c106 0 118 -2 118 -17z m-2055 -242 c-4 -17 -11 -31 -16 -31 -4 0 -15 -13 -24 -30 -9 -16 -23 -30 -32 -30 -9 0 -22 -8 -29 -17 -12 -16 -13 -15 -14 12 0 23 12 40 58 81 31 29 59 51 60 49 2 -2 1 -17 -3 -34z m1491 -247 c7 -29 3 -37 -18 -29 -18 7 -41 53 -33 66 10 15 44 -9 51 -37z m-739 -8 c28 -25 28 -25 11 -56 -22 -39 -22 -48 -2 -52 13 -3 13 -5 1 -22 -14 -19 -16 -19 -41 -3 -29 20 -35 57 -11 77 20 17 19 27 -5 35 -16 5 -18 10 -10 26 14 25 23 24 57 -5z m172 9 c60 -31 56 -110 -8 -144 -53 -29 -121 11 -121 72 0 72 63 107 129 72z m111 -15 c0 -16 4 -30 9 -30 5 0 14 14 21 30 9 22 19 30 36 30 24 0 24 -1 10 -33 -11 -28 -11 -36 0 -52 33 -45 -3 -85 -76 -85 l-50 0 0 85 c0 84 0 85 25 85 21 0 25 -5 25 -30z m150 0 c0 -19 5 -30 14 -30 8 0 17 14 21 30 5 23 12 30 31 30 27 0 29 -8 12 -45 -9 -19 -9 -28 0 -37 16 -16 15 -61 0 -76 -7 -7 -38 -12 -70 -12 l-58 0 0 85 c0 84 0 85 25 85 21 0 25 -5 25 -30z m200 7 c0 -13 11 -38 25 -57 14 -19 25 -47 25 -62 0 -23 -4 -28 -25 -28 -19 0 -25 5 -25 23 0 12 -4 28 -9 36 -13 21 -41 -4 -41 -35 0 -19 -5 -24 -26 -24 -24 0 -26 3 -20 31 3 17 15 43 26 59 11 15 20 40 20 54 0 21 5 26 25 26 19 0 25 -5 25 -23z m242 -23 l3 -46 34 46 c24 32 42 46 58 46 22 0 23 -3 23 -85 0 -83 0 -85 -24 -85 -22 0 -25 5 -28 46 l-3 46 -32 -46 c-21 -29 -40 -46 -53 -46 -18 0 -20 6 -20 85 0 78 2 85 19 85 16 0 20 -8 23 -46z m273 23 c58 -49 20 -147 -56 -147 -39 0 -89 48 -89 85 0 37 50 85 89 85 17 0 41 -10 56 -23z"/>
<path d="M1660 1300 c0 -16 5 -21 23 -18 12 2 22 10 22 18 0 8 -10 16 -22 18 -18 3 -23 -2 -23 -18z"/>
</g>
<g id="layer105" fill="#ececec" stroke="none">
<path d="M0 1500 l0 -1500 1500 0 1500 0 0 1500 0 1500 -1500 0 -1500 0 0 -1500z m790 1287 c23 -8 108 -12 252 -12 119 0 214 -3 212 -7 -3 -4 14 -1 38 8 51 18 175 20 252 4 41 -8 55 -16 59 -32 4 -12 3 -26 -1 -32 -3 -6 -5 -23 -3 -39 2 -19 -6 -36 -27 -57 -30 -29 -62 -40 -62 -20 0 6 -4 10 -10 10 -5 0 -10 -8 -10 -18 0 -10 -9 -25 -19 -34 -20 -17 -35 -78 -46 -185 l-6 -63 143 -1 c850 -7 1196 -15 1211 -28 16 -12 17 -68 17 -619 0 -549 -2 -607 -17 -624 -15 -17 -41 -18 -415 -18 -331 0 -398 -2 -398 -14 0 -28 -28 -35 -143 -37 -64 0 -120 -5 -123 -10 -3 -5 -10 -7 -15 -4 -5 4 -9 1 -9 -5 0 -25 -28 -39 -78 -37 -43 2 -49 4 -46 21 2 11 10 24 19 28 8 5 15 20 15 33 0 21 -5 25 -30 25 -16 0 -30 -4 -30 -9 0 -25 -80 -88 -94 -74 -3 3 -6 23 -6 44 0 22 -5 39 -14 42 -17 7 -26 -1 -26 -20 0 -26 -27 -44 -55 -37 -16 4 -25 2 -25 -6 0 -7 7 -10 15 -6 8 3 15 3 15 0 0 -3 -21 -15 -47 -27 -41 -19 -65 -22 -160 -21 l-112 1 57 -63 c150 -163 195 -339 131 -511 -16 -42 -26 -54 -47 -59 -15 -3 -52 -12 -82 -19 -104 -25 -361 -39 -469 -25 -53 7 -103 14 -113 15 -9 0 -24 7 -33 15 -13 11 -18 11 -25 1 -10 -17 -48 83 -61 159 -28 170 81 362 263 465 66 37 100 75 67 75 -7 0 -52 19 -100 43 -75 36 -92 49 -121 92 -54 83 -128 319 -128 414 0 54 1 55 65 116 58 55 65 67 65 100 0 21 5 56 12 78 12 38 60 100 85 108 10 3 5 47 -17 179 -16 96 -33 231 -36 300 -3 69 -10 143 -14 165 -6 26 -5 42 2 46 6 4 7 12 4 18 -4 6 -11 9 -16 6 -5 -3 -11 -1 -15 5 -3 5 -16 10 -29 10 -32 0 -57 30 -50 61 3 13 8 41 11 61 5 32 10 38 37 42 55 8 300 -4 336 -17z"/>
<path d="M846 2623 c-4 -18 -12 -35 -17 -38 -14 -10 -10 -103 9 -190 l18 -80 124 0 124 0 13 50 c29 112 35 176 19 210 -15 30 -19 32 -83 38 -38 4 -96 7 -130 7 -50 0 -62 3 -65 18 -3 11 -7 6 -12 -15z"/>
<path d="M704 2287 c-3 -9 -4 -80 -2 -158 3 -134 4 -142 27 -160 15 -12 31 -17 47 -13 17 5 24 2 24 -9 0 -8 15 -24 33 -36 18 -11 43 -31 56 -45 58 -62 -11 -205 -108 -222 -8 -2 -17 -6 -20 -11 -3 -5 -18 -14 -32 -20 -35 -15 -39 -43 -39 -311 l0 -222 28 -11 c37 -14 645 -11 690 4 20 7 32 18 32 29 0 10 14 24 33 33 39 19 108 60 125 75 8 7 12 42 12 105 0 95 0 95 25 95 21 0 25 -5 25 -30 0 -19 5 -30 14 -30 8 0 17 14 21 30 5 24 12 30 32 30 21 0 24 -4 19 -20 -3 -11 -8 -28 -11 -37 -3 -10 2 -27 11 -38 15 -20 16 -20 40 10 13 17 24 42 24 58 0 22 4 27 25 27 19 0 25 -5 25 -23 0 -13 11 -38 25 -57 28 -38 34 -90 10 -90 -8 0 -15 -4 -15 -10 0 -5 4 -10 10 -10 18 0 85 -112 82 -136 -3 -24 -2 -24 80 -24 46 0 218 -3 383 -7 260 -5 302 -4 313 9 9 12 12 147 10 609 l-3 594 -630 7 c-346 4 -709 11 -805 16 -96 5 -204 6 -240 3 -78 -8 -132 -7 -267 3 -90 8 -103 7 -109 -7z m476 -97 c0 -14 57 -13 62 1 2 6 15 9 30 7 l26 -3 -32 -80 c-27 -68 -36 -80 -55 -80 -20 0 -28 12 -52 75 -16 41 -29 78 -29 82 0 5 11 8 25 8 14 0 25 -4 25 -10z m247 -41 c13 -26 27 -63 30 -83 5 -34 4 -36 -21 -36 -23 0 -26 4 -26 33 -1 17 -7 46 -14 62 l-13 30 -16 -32 c-11 -20 -15 -43 -11 -62 6 -28 4 -31 -20 -31 -23 0 -26 4 -26 35 0 20 11 58 25 86 33 64 57 64 92 -2z m83 41 c0 -5 16 -10 35 -10 19 0 35 5 35 10 0 6 12 10 26 10 21 0 25 -4 20 -17 -50 -135 -60 -153 -83 -153 -12 0 -23 2 -23 4 0 3 -13 41 -30 85 l-29 81 24 0 c14 0 25 -4 25 -10z m182 -17 c2 -16 2 -54 0 -85 -4 -54 -6 -58 -28 -58 -23 0 -24 2 -24 85 0 83 1 85 24 85 18 0 25 -6 28 -27z m198 17 c0 -5 16 -10 35 -10 19 0 35 5 35 10 0 6 12 10 26 10 21 0 25 -4 20 -17 -49 -132 -60 -153 -81 -153 -19 0 -27 13 -53 83 -17 45 -31 74 -31 65 -1 -14 -10 -18 -36 -18 l-35 0 0 -65 c0 -63 -1 -65 -25 -65 -19 0 -25 6 -26 23 -1 12 -3 33 -5 47 -1 14 0 42 3 63 l6 37 83 0 c49 0 84 -4 84 -10z m251 0 c10 -6 19 -20 19 -31 0 -11 5 -17 10 -14 6 3 10 17 10 31 0 23 3 24 60 24 53 0 60 -2 60 -20 0 -16 -7 -20 -35 -20 l-35 0 0 -65 c0 -63 -1 -65 -25 -65 -19 0 -25 5 -25 23 0 33 -11 67 -22 67 -5 0 -6 -15 -3 -34 9 -43 -11 -56 -84 -56 l-51 0 0 85 0 85 51 0 c28 0 59 -5 70 -10z m292 -10 c4 -17 0 -20 -34 -20 -50 0 -55 -27 -7 -32 22 -2 34 -9 36 -20 3 -15 -4 -18 -32 -18 -20 0 -36 -4 -36 -10 0 -5 16 -10 35 -10 28 0 35 -4 35 -20 0 -18 -7 -20 -60 -20 l-60 0 0 85 0 85 59 0 c50 0 59 -3 64 -20z m-1293 -450 l0 -170 -47 0 -48 0 -1 170 -1 170 49 0 48 0 0 -170z m141 91 c-1 -41 2 -71 6 -68 5 3 22 38 38 76 37 94 52 93 90 -6 l30 -78 3 78 3 77 48 0 48 0 0 -170 0 -170 -44 0 -44 0 -43 91 c-48 103 -45 103 -97 -13 l-34 -77 -45 -1 -45 0 0 170 -1 171 45 -3 44 -3 -2 -74z m395 54 c6 -23 11 -25 60 -25 49 0 55 3 64 25 8 22 15 25 60 25 27 0 50 -1 50 -3 0 -2 -29 -77 -63 -168 l-64 -164 -45 -3 c-42 -3 -47 -1 -56 25 -6 15 -33 92 -61 171 l-51 142 50 0 c45 0 50 -3 56 -25z m579 7 c-3 -8 -5 -47 -5 -88 l0 -74 -47 0 -48 0 0 42 c0 43 0 43 -40 46 -56 4 -85 -24 -85 -83 0 -35 5 -48 26 -64 32 -25 59 -26 99 -5 29 15 31 14 52 -12 28 -35 18 -56 -37 -78 -75 -30 -144 -14 -193 43 -74 88 -52 222 45 270 34 17 58 20 140 18 77 -2 97 -5 93 -15z m275 1 c0 -10 3 -28 6 -40 6 -21 3 -22 -67 -25 -68 -3 -74 -5 -77 -25 -3 -22 0 -23 62 -23 l66 0 0 -40 0 -40 -65 0 c-63 0 -65 -1 -65 -25 0 -24 2 -25 70 -25 75 0 78 -3 64 -57 -6 -22 -11 -23 -118 -23 l-111 0 -1 170 -1 170 119 0 c106 0 118 -2 118 -17z m-564 -489 c7 -29 3 -37 -18 -29 -18 7 -41 53 -33 66 10 15 44 -9 51 -37z m-739 -8 c28 -25 28 -25 11 -56 -22 -39 -22 -48 -2 -52 13 -3 13 -5 1 -22 -14 -19 -16 -19 -41 -3 -29 20 -35 57 -11 77 20 17 19 27 -5 35 -16 5 -18 10 -10 26 14 25 23 24 57 -5z m172 9 c60 -31 56 -110 -8 -144 -53 -29 -121 11 -121 72 0 72 63 107 129 72z m111 -15 c0 -16 4 -30 9 -30 5 0 14 14 21 30 9 22 19 30 36 30 24 0 24 -1 10 -33 -11 -28 -11 -36 0 -52 17 -23 18 -57 2 -73 -7 -7 -38 -12 -70 -12 l-58 0 0 85 c0 84 0 85 25 85 21 0 25 -5 25 -30z m590 -5 c0 -44 12 -44 47 0 17 21 37 35 51 35 21 0 22 -4 22 -85 0 -83 0 -85 -24 -85 -22 0 -25 5 -28 46 l-3 46 -32 -46 c-21 -29 -40 -46 -53 -46 -18 0 -20 6 -20 85 0 78 2 85 20 85 16 0 20 -7 20 -35z m275 12 c58 -49 20 -147 -56 -147 -39 0 -89 48 -89 85 0 37 50 85 89 85 17 0 41 -10 56 -23z"/>
<path d="M1200 2120 c6 -11 12 -20 14 -20 2 0 6 9 9 20 4 15 0 20 -14 20 -17 0 -18 -3 -9 -20z"/>
<path d="M1530 2126 c0 -22 17 -28 24 -10 9 22 8 24 -9 24 -8 0 -15 -6 -15 -14z"/>
<path d="M1910 2126 c0 -22 17 -28 24 -10 9 22 8 24 -9 24 -8 0 -15 -6 -15 -14z"/>
<path d="M2070 2145 c0 -11 7 -15 23 -13 12 2 22 8 22 13 0 6 -10 11 -22 13 -16 2 -23 -2 -23 -13z"/>
<path d="M2070 2080 c0 -5 9 -10 20 -10 11 0 20 5 20 10 0 6 -9 10 -20 10 -11 0 -20 -4 -20 -10z"/>
<path d="M1500 1300 c0 -16 5 -21 23 -18 12 2 22 10 22 18 0 8 -10 16 -22 18 -18 3 -23 -2 -23 -18z"/>
<path d="M635 1653 c-11 -2 -30 -6 -43 -9 -12 -2 -28 -16 -34 -29 -6 -14 -18 -25 -26 -25 -12 0 -12 -3 -2 -15 19 -23 70 -14 101 16 14 15 36 30 48 34 11 3 21 13 21 21 0 14 -23 16 -65 7z"/>
<path d="M445 1510 c-11 -18 24 -23 40 -6 15 15 14 16 -9 16 -14 0 -28 -5 -31 -10z"/>
<path d="M1660 1300 c0 -23 22 -27 39 -7 13 16 5 27 -21 27 -11 0 -18 -7 -18 -20z"/>
<path d="M1826 1294 c-10 -26 -7 -44 8 -44 20 0 29 16 21 40 -8 24 -21 26 -29 4z"/>
<path d="M1213 1023 c15 -2 37 -2 50 0 12 2 0 4 -28 4 -27 0 -38 -2 -22 -4z"/>
</g>
<g id="layer106" fill="#fafafa" stroke="none">
<path d="M0 1500 l0 -1500 1500 0 1500 0 0 1500 0 1500 -1500 0 -1500 0 0 -1500z m583 1323 c-13 -2 -33 -2 -45 0 -13 2 -3 4 22 4 25 0 35 -2 23 -4z m857 -11 l85 -6 -55 -7 c-50 -5 -52 -6 -14 -7 23 -1 57 -5 75 -8 26 -4 30 -3 19 5 -12 9 -10 11 10 10 67 -1 329 -54 345 -70 5 -5 23 -9 40 -9 41 0 55 -16 55 -62 0 -30 -4 -38 -18 -38 -11 0 -27 -9 -37 -20 -10 -11 -25 -20 -34 -20 -9 0 -33 -12 -54 -26 -33 -22 -52 -26 -145 -31 -59 -3 -112 -9 -118 -14 -6 -5 -39 -10 -75 -13 -77 -5 -84 -14 -93 -112 l-6 -71 377 -6 c207 -4 508 -7 670 -7 285 0 294 -1 314 -21 l21 -21 -3 -607 c-4 -548 -6 -608 -21 -623 -15 -15 -52 -16 -417 -11 -363 6 -401 5 -401 -10 0 -20 -38 -47 -66 -47 -12 0 -24 -5 -26 -10 -2 -6 -14 -12 -28 -15 -14 -3 -40 -8 -58 -11 -19 -4 -38 -1 -46 6 -12 9 -21 7 -42 -7 -21 -13 -48 -18 -101 -18 -69 0 -94 8 -55 18 9 3 3 5 -15 6 -17 0 -35 -4 -38 -9 -10 -16 -36 -12 -51 7 -7 10 -14 36 -14 58 -1 22 -4 34 -7 28 -2 -7 -9 -13 -15 -13 -6 0 -18 -8 -27 -18 -9 -10 -43 -32 -76 -48 -56 -27 -68 -29 -172 -28 l-112 1 57 -63 c116 -127 169 -257 157 -388 -8 -86 -38 -169 -76 -209 -16 -16 -29 -36 -29 -44 0 -7 -8 -17 -17 -20 -10 -4 -31 -16 -48 -28 -16 -13 -36 -20 -44 -18 -7 3 -17 -1 -22 -8 -6 -10 -53 -15 -186 -19 -244 -7 -288 7 -355 109 -68 102 -95 215 -77 316 25 144 120 270 261 350 66 37 100 75 67 75 -7 0 -52 19 -100 43 -75 36 -92 49 -121 92 -54 83 -128 319 -128 414 0 54 1 55 65 116 58 55 65 67 65 100 0 21 5 56 12 78 12 38 60 100 85 108 10 3 5 46 -17 179 -32 193 -39 259 -39 369 l-1 73 -30 -4 c-16 -3 -30 -1 -30 4 0 4 -13 8 -30 8 -16 0 -30 5 -30 10 0 6 -9 10 -20 10 -10 0 -35 16 -55 35 -30 31 -35 42 -35 85 0 63 29 100 96 120 50 14 113 16 259 4 54 -4 77 -3 70 4 -5 6 -19 12 -30 15 -30 7 656 -3 755 -11z"/>
<path d="M1270 2789 c-11 -7 6 -8 55 -3 39 3 72 8 74 10 10 9 -116 3 -129 -7z"/>
<path d="M821 2520 c0 -25 8 -81 17 -125 l18 -80 124 1 124 1 18 69 c27 107 38 99 -129 101 -80 2 -147 4 -148 5 -1 2 -6 19 -12 38 l-11 35 -1 -45z"/>
<path d="M1053 2283 c15 -2 39 -2 55 0 15 2 2 4 -28 4 -30 0 -43 -2 -27 -4z"/>
<path d="M1955 1899 c-5 -14 -12 -18 -25 -14 -13 4 -22 -1 -30 -15 -6 -12 -9 -24 -6 -28 3 -3 6 -1 6 5 0 6 7 14 16 17 13 5 15 2 11 -16 -5 -21 -5 -21 7 -5 7 9 16 17 20 17 10 0 39 30 29 30 -4 0 -2 4 5 9 11 6 9 9 -7 14 -14 3 -22 -1 -26 -14z"/>
<path d="M2603 1886 c-26 -12 -30 -31 -8 -40 22 -8 18 -36 -4 -36 -22 0 -33 -13 -36 -44 -4 -35 -4 -36 -20 -36 -8 0 -15 -9 -15 -20 0 -18 -7 -20 -65 -20 -63 0 -65 -1 -65 -25 0 -24 2 -25 70 -25 75 0 78 -3 64 -57 -6 -22 -11 -23 -121 -23 l-115 0 7 89 c8 106 -1 191 -20 191 -8 0 -16 10 -18 23 -2 12 -5 -15 -6 -60 l-1 -83 -48 0 -49 0 5 31 c5 31 4 31 -29 25 -32 -7 -33 -6 -14 9 11 8 25 13 33 10 7 -2 10 0 7 5 -9 14 -55 12 -55 -2 0 -10 -2 -10 -9 0 -7 12 -12 12 -29 1 -12 -8 -24 -19 -26 -26 -7 -17 -1 -16 17 1 8 9 19 11 27 6 12 -7 11 -11 0 -25 -12 -14 -12 -18 1 -26 10 -6 5 -9 -18 -9 -42 0 -45 -29 -7 -59 32 -25 59 -26 99 -5 29 15 31 14 51 -11 26 -33 26 -53 0 -61 -19 -6 -19 -7 -1 -20 17 -12 17 -14 2 -14 -9 0 -17 -6 -17 -14 0 -8 -4 -17 -9 -21 -5 -3 -8 8 -6 24 4 29 3 29 -31 18 -33 -10 -47 -27 -22 -27 8 0 6 -6 -5 -17 -14 -15 -20 -15 -42 -3 -18 10 -25 20 -21 33 3 13 0 17 -10 13 -8 -3 -14 0 -14 6 0 7 -6 3 -14 -7 -16 -22 -2 -55 24 -55 27 -1 -63 -40 -91 -40 -16 0 -29 -7 -33 -17 -4 -10 -4 -14 0 -11 3 4 19 1 34 -7 20 -11 26 -20 23 -37 -2 -15 5 -32 22 -50 28 -31 33 -63 9 -72 -18 -7 -12 -49 11 -72 7 -7 16 -32 20 -54 4 -23 12 -40 20 -40 7 0 15 -5 17 -12 3 -9 46 -12 161 -11 86 1 157 -2 157 -7 0 -13 289 -12 327 2 l33 12 0 213 c0 183 -2 213 -15 213 -11 0 -15 12 -15 45 0 33 4 45 15 45 10 0 15 10 15 30 0 19 -5 30 -14 30 -15 0 -23 42 -32 168 l-6 72 -36 -1 c-20 -1 -47 -6 -59 -13z m17 -127 c0 -5 -7 -9 -15 -9 -15 0 -20 12 -9 23 8 8 24 -1 24 -14z m-480 -20 c0 -12 -29 -24 -37 -16 -3 4 -3 13 0 21 6 16 37 11 37 -5z m-40 -364 c0 -44 12 -44 47 0 17 21 37 35 51 35 21 0 22 -4 22 -85 0 -83 0 -85 -24 -85 -22 0 -25 5 -28 46 l-3 46 -32 -46 c-21 -29 -40 -46 -53 -46 -18 0 -20 6 -20 85 0 78 2 85 20 85 16 0 20 -7 20 -35z m275 12 c58 -49 20 -147 -56 -147 -39 0 -89 48 -89 85 0 37 50 85 89 85 17 0 41 -10 56 -23z"/>
<path d="M2293 1353 c-17 -6 -16 -38 2 -53 31 -26 82 13 56 44 -13 16 -34 19 -58 9z"/>
<path d="M2397 1813 c-4 -3 -7 -15 -7 -25 0 -13 8 -18 28 -18 22 0 27 4 27 25 0 19 -5 25 -21 25 -11 0 -24 -3 -27 -7z"/>
<path d="M1916 1793 c-4 -10 -11 -11 -25 -4 -17 9 -21 6 -34 -32 -8 -23 -18 -50 -22 -59 -5 -13 0 -20 19 -28 14 -5 26 -12 26 -14 0 -17 -25 -56 -36 -56 -7 0 -14 -6 -17 -12 -3 -10 -7 -10 -19 0 -13 10 -16 9 -21 -7 -5 -22 2 -36 23 -44 9 -3 3 -6 -13 -6 -16 -1 -30 5 -33 14 -7 18 -54 20 -54 3 -1 -7 -7 -2 -15 12 l-14 25 -1 -27 c0 -31 -7 -33 -45 -16 -27 12 -31 23 -13 34 7 5 4 10 -12 16 -19 7 -21 13 -16 38 4 22 2 30 -9 30 -8 0 -15 5 -15 11 0 7 15 10 40 7 44 -4 44 -8 11 77 -11 28 -20 45 -21 39 0 -7 -6 -12 -12 -11 -45 1 -48 -2 -46 -55 l1 -53 7 50 6 50 8 -39 c6 -26 5 -45 -3 -57 -16 -27 -14 -69 4 -69 16 0 21 -52 9 -84 -8 -20 -40 -21 -48 -1 -3 8 -1 15 4 15 6 0 10 5 10 10 0 6 -18 10 -40 10 -27 0 -42 6 -49 18 -6 9 -11 11 -11 5 0 -7 -6 -13 -14 -13 -8 0 -16 -10 -18 -22 -4 -26 -26 -36 -33 -14 -3 9 -8 24 -12 34 -3 9 -5 22 -4 29 1 6 -6 9 -18 6 -13 -3 -20 1 -23 14 -3 13 -8 8 -18 -19 -13 -37 -16 -38 -61 -38 l-48 0 4 108 c2 59 2 97 -1 85 -4 -16 -13 -23 -30 -23 -18 0 -25 -5 -23 -17 1 -10 1 -48 0 -85 l-1 -68 -50 0 c-38 0 -50 4 -50 15 0 8 -7 15 -15 15 -8 0 -15 -6 -15 -13 0 -8 -9 -22 -20 -32 -19 -17 -21 -17 -38 -2 -10 10 -22 17 -25 17 -4 0 -16 9 -27 20 -36 36 -142 22 -169 -23 -8 -12 -16 -47 -17 -77 -4 -77 -4 -77 -14 -55 -5 12 -9 -51 -9 -163 l-1 -182 25 -10 c29 -11 406 -9 399 1 -2 4 33 10 78 12 135 7 158 17 158 70 0 16 5 27 14 27 16 0 46 42 46 65 0 13 -4 14 -21 4 -12 -6 -36 -8 -55 -5 -86 17 -86 145 0 161 38 8 90 -14 100 -40 11 -30 7 -97 -6 -89 -7 5 -8 3 -3 -5 14 -24 27 6 32 73 5 61 7 66 29 66 20 0 24 -5 24 -30 0 -16 4 -30 9 -30 5 0 14 14 21 30 7 17 20 31 29 31 27 2 55 6 70 10 9 2 16 -5 18 -16 8 -43 12 -48 28 -35 20 16 19 34 -1 26 -11 -4 -14 -1 -12 12 2 12 12 17 36 16 17 -1 32 3 32 8 0 5 4 7 8 4 5 -3 19 -7 33 -9 13 -3 30 -7 38 -9 10 -2 15 6 15 22 1 22 6 25 39 28 28 2 37 8 37 21 0 10 7 24 15 31 8 7 15 18 15 25 0 15 54 37 66 27 5 -4 -6 10 -23 30 -41 48 -58 110 -46 164 7 31 6 41 -3 41 -7 0 -16 -7 -18 -14z m-689 -407 c28 -25 28 -25 11 -56 -22 -39 -22 -48 -2 -52 13 -3 13 -5 1 -22 -14 -19 -16 -19 -41 -3 -29 20 -35 57 -11 77 20 17 19 27 -5 35 -16 5 -18 10 -10 26 14 25 23 24 57 -5z m-520 -73 c-2 -16 -4 -3 -4 27 0 30 2 43 4 28 2 -16 2 -40 0 -55z"/>
<path d="M1711 1758 c0 -7 6 -29 14 -48 l13 -35 11 28 c18 47 14 67 -14 67 -14 0 -25 -6 -24 -12z"/>
<path d="M693 1490 c0 -25 2 -35 4 -22 2 12 2 32 0 45 -2 12 -4 2 -4 -23z"/>
<path d="M1319 1344 c-19 -23 1 -49 37 -49 23 0 30 5 32 24 6 39 -43 56 -69 25z"/>
</g>


</svg>